<svg width="24" height="24" viewBox="0 0 24 24" fill="none" xmlns="http://www.w3.org/2000/svg">
<path d="M13.0179 3.28947L13.3872 3.10034L13.0474 2.86222C12.4071 2.41354 11.6236 2.14973 10.7787 2.14973C9.8498 2.14968 8.95064 2.47486 8.2425 3.06788C7.53425 3.66098 7.06324 4.48342 6.91507 5.38821L6.91498 5.38874C6.73603 6.49639 6.72527 7.61242 6.75793 8.71675C6.77005 9.12662 6.78796 9.53205 6.80576 9.935C6.83264 10.5434 6.85927 11.1462 6.86533 11.75H4.92411C4.9186 11.1194 4.89355 10.4891 4.86868 9.86327C4.86216 9.69937 4.85566 9.53579 4.84952 9.37258C4.81675 8.50099 4.79425 7.63701 4.83342 6.77439L4.85184 6.36884L4.4814 6.53493C3.87602 6.80637 3.35059 7.22537 2.95513 7.75272C2.55966 8.28011 2.30732 8.89833 2.2224 9.54897C2.13748 10.1996 2.22284 10.8607 2.47026 11.4696C2.71766 12.0785 3.1188 12.6148 3.63526 13.028L3.6357 13.0284C4.52175 13.734 5.49881 14.3006 6.48761 14.8247C6.85264 15.0181 7.21686 15.2047 7.57897 15.3901C8.13019 15.6724 8.67652 15.9522 9.21333 16.2501L8.246 17.8972C7.68075 17.5823 7.10595 17.2847 6.53513 16.9891C6.39285 16.9154 6.25083 16.8419 6.10926 16.7683C5.32512 16.3603 4.55223 15.9477 3.81042 15.4841L3.46823 15.2702L3.4291 15.6719C3.36548 16.3249 3.47243 16.983 3.73964 17.5838C4.00685 18.1846 4.42533 18.7079 4.95505 19.1045C5.48476 19.5011 6.10827 19.7581 6.76654 19.8514C7.4248 19.9447 8.09646 19.8714 8.71807 19.6383L8.71858 19.6381C9.78253 19.2364 10.7699 18.6882 11.726 18.1087C12.0817 17.893 12.4308 17.6745 12.7778 17.4573C13.3014 17.1297 13.8203 16.8049 14.3506 16.497L15.3179 18.1441C14.7629 18.4652 14.2179 18.8029 13.6766 19.1383C13.538 19.2241 13.3996 19.3099 13.2614 19.3951C12.5098 19.8588 11.7595 20.3103 10.9798 20.7093L10.6103 20.8984L10.9502 21.1366C11.4922 21.5165 12.1236 21.754 12.7845 21.8268C13.4454 21.8997 14.1144 21.8056 14.7282 21.5533C15.3421 21.301 15.8808 20.8987 16.2931 20.3841C16.7055 19.8694 16.9777 19.2594 17.0837 18.6118L17.0838 18.6113C17.2627 17.5036 17.2735 16.3876 17.2408 15.2833C17.2287 14.8734 17.2108 14.4679 17.193 14.065C17.1661 13.4565 17.1395 12.8538 17.1334 12.25H19.0747C19.0802 12.8806 19.1052 13.5109 19.1301 14.1367C19.1366 14.3006 19.1431 14.4642 19.1493 14.6274C19.182 15.499 19.2045 16.363 19.1654 17.2256L19.1469 17.6313L19.5174 17.465C20.1227 17.1935 20.648 16.7744 21.0434 16.247C21.4387 15.7195 21.6909 15.1013 21.7757 14.4506C21.8605 13.8 21.775 13.1389 21.5275 12.5301C21.28 11.9213 20.8788 11.3851 20.3623 10.9719L20.3619 10.9717C19.4765 10.266 18.4997 9.69943 17.511 9.17534C17.1457 8.98166 16.7811 8.79496 16.4186 8.60933C15.8678 8.32724 15.3219 8.04765 14.7854 7.74988L15.7529 6.10269C16.3136 6.4147 16.884 6.70986 17.4504 7.003C17.5973 7.079 17.7439 7.15487 17.89 7.23085C18.6742 7.63874 19.4471 8.0516 20.1882 8.51577L20.5305 8.73019L20.5697 8.32814C20.6333 7.67507 20.5264 7.01696 20.2591 6.41618C19.9919 5.81543 19.5735 5.29213 19.0437 4.89549C18.514 4.49887 17.8905 4.24194 17.2322 4.14861C16.574 4.05528 15.9023 4.12859 15.2807 4.36171L15.2802 4.36191C14.2162 4.76363 13.2289 5.31176 12.2728 5.89135C11.917 6.10699 11.568 6.32546 11.221 6.54265C10.6974 6.87033 10.1785 7.19511 9.64818 7.50298L8.68082 5.85586C9.23689 5.53398 9.78255 5.19565 10.3243 4.85973C10.4623 4.77415 10.6001 4.68872 10.7377 4.60377C11.4891 4.13999 12.2388 3.68844 13.0179 3.28947ZM15.2206 2.25465L15.3167 2.36468L15.4598 2.33486C16.4769 2.12291 17.5331 2.18088 18.5198 2.50276C19.5065 2.82463 20.3877 3.39866 21.0734 4.16543C21.759 4.93218 22.2243 5.86405 22.4221 6.86526C22.6199 7.86645 22.5432 8.90136 22.1996 9.86391L22.1491 10.0056L22.2506 10.1167C22.9448 10.8757 23.4207 11.8023 23.6299 12.8012C23.8391 13.8 23.7742 14.8355 23.4418 15.8017C23.1094 16.7679 22.5213 17.6302 21.7373 18.3C20.9533 18.9698 20.0018 19.4228 18.9802 19.612L18.8349 19.6389L18.7884 19.7792C18.467 20.7489 17.8888 21.6176 17.1125 22.2959C16.3362 22.9742 15.3899 23.4376 14.3706 23.6381C13.3512 23.8386 12.296 23.7688 11.3133 23.436C10.3305 23.1032 9.45612 22.5195 8.77944 21.7453L8.68327 21.6353L8.54021 21.6651C7.52309 21.8771 6.4669 21.8191 5.4802 21.4972C4.49353 21.1754 3.61227 20.6013 2.92664 19.8346C2.24103 19.0678 1.77568 18.1359 1.57787 17.1347C1.38007 16.1336 1.45682 15.0986 1.80036 14.1361L1.85093 13.9944L1.74939 13.8833C1.0552 13.1243 0.579332 12.1977 0.370127 11.1988C0.160925 10.2 0.225807 9.16448 0.558203 8.19833C0.890608 7.23215 1.47871 6.36978 2.26267 5.70002C3.04666 5.03023 3.99822 4.57724 5.01983 4.388L5.16512 4.36109L5.2116 4.22083C5.533 3.25111 6.11124 2.3824 6.88748 1.7041C7.66376 1.02577 8.61005 0.562364 9.6294 0.361898C10.6488 0.161429 11.704 0.23122 12.6867 0.564021C13.6695 0.896815 14.5439 1.48049 15.2206 2.25465Z" fill="#365EFF" stroke="white" stroke-width="0.5"/>
</svg>
