<svg width="24" height="24" viewBox="0 0 24 24" fill="none" xmlns="http://www.w3.org/2000/svg">
<path d="M2 14.4974C2 15.0883 2.1164 15.6735 2.34254 16.2195C2.56869 16.7654 2.90016 17.2615 3.31802 17.6794C4.16193 18.5233 5.30653 18.9974 6.5 18.9974H18.5C19.386 18.999 20.2396 18.6645 20.8886 18.0615C21.5377 17.4584 21.9339 16.6317 21.9973 15.748C22.0608 14.8643 21.7867 13.9894 21.2304 13.2999C20.6742 12.6103 19.8771 12.1574 19 12.0324C19.0098 10.3311 18.3996 8.68458 17.2837 7.40048C16.1677 6.11637 14.6223 5.28263 12.9363 5.05509C11.2503 4.82756 9.5392 5.22181 8.12277 6.16415C6.70633 7.10649 5.68156 8.53242 5.24 10.1754C4.30512 10.4484 3.48398 11.0172 2.8998 11.7965C2.31562 12.5758 1.99989 13.5235 2 14.4974Z" stroke="#365EFF" stroke-width="1.5" stroke-linejoin="round"/>
<path d="M15 11L11 15L9 13" stroke="#365EFF" stroke-width="1.5" stroke-linecap="round" stroke-linejoin="round"/>
</svg>
