<svg width="24" height="24" viewBox="0 0 24 24" fill="none" xmlns="http://www.w3.org/2000/svg">
<g clip-path="url(#clip0_440_9641)">
<path d="M6.03516 11.5625C6.03516 12.3581 6.35123 13.1212 6.91384 13.6838C7.47645 14.2464 8.23951 14.5625 9.03516 14.5625C9.83081 14.5625 10.5939 14.2464 11.1565 13.6838C11.7191 13.1212 12.0352 12.3581 12.0352 11.5625C12.0352 10.7669 11.7191 10.0038 11.1565 9.44118C10.5939 8.87857 9.83081 8.5625 9.03516 8.5625C8.23951 8.5625 7.47645 8.87857 6.91384 9.44118C6.35123 10.0038 6.03516 10.7669 6.03516 11.5625Z" stroke="#365EFF" stroke-width="1.25" stroke-linecap="round" stroke-linejoin="round"/>
<path d="M16.5078 14.9824C14.8826 19.3401 10.7375 23.1355 9.03348 23.1355C6.89063 23.1355 0.890625 17.1355 0.890625 11.5641C0.890524 10.4311 1.12686 9.31053 1.58453 8.27409C2.04219 7.23765 2.71111 6.30812 3.5485 5.54494C4.3859 4.78177 5.37334 4.20174 6.44769 3.84196C7.52204 3.48217 8.65965 3.35055 9.78777 3.4555M13.1941 6.46236C12.6215 6.36121 12.6215 5.54007 13.1941 5.44064C14.2074 5.26448 15.1453 4.79047 15.8882 4.07908C16.631 3.36768 17.1451 2.45114 17.3649 1.44635L17.3992 1.28864C17.5226 0.722926 18.3283 0.721212 18.4569 1.28521L18.4981 1.46864C18.7262 2.46906 19.2451 3.3797 19.9893 4.08611C20.7335 4.79253 21.67 5.26318 22.6809 5.43893C23.2552 5.53836 23.2552 6.36464 22.6809 6.46407C21.67 6.63981 20.7335 7.11047 19.9893 7.81688C19.2451 8.52329 18.7262 9.43394 18.4981 10.4344L18.4569 10.6178C18.3283 11.1818 17.5226 11.1784 17.3992 10.6126L17.3649 10.4549C17.1451 9.45014 16.631 8.5336 15.8882 7.8222C15.1453 7.11081 14.2074 6.63851 13.1941 6.46236Z" stroke="#365EFF" stroke-width="1.25" stroke-linecap="round" stroke-linejoin="round"/>
</g>
<defs>
<clipPath id="clip0_440_9641">
<rect width="24" height="24" fill="white"/>
</clipPath>
</defs>
</svg>
