<svg width="24" height="24" viewBox="0 0 24 24" fill="none" xmlns="http://www.w3.org/2000/svg">
<path d="M10 5L12 3M8 16L16 8M12 21L14 19M16.5 19C17.163 19 17.7989 18.7366 18.2678 18.2678C18.7366 17.7989 19 17.163 19 16.5C19 15.837 18.7366 15.2011 18.2678 14.7322C17.7989 14.2634 17.163 14 16.5 14C15.837 14 15.2011 14.2634 14.7322 14.7322C14.2634 15.2011 14 15.837 14 16.5C14 17.163 14.2634 17.7989 14.7322 18.2678C15.2011 18.7366 15.837 19 16.5 19ZM7.5 10C8.16304 10 8.79893 9.73661 9.26777 9.26777C9.73661 8.79893 10 8.16304 10 7.5C10 6.83696 9.73661 6.20107 9.26777 5.73223C8.79893 5.26339 8.16304 5 7.5 5C6.83696 5 6.20107 5.26339 5.73223 5.73223C5.26339 6.20107 5 6.83696 5 7.5C5 8.16304 5.26339 8.79893 5.73223 9.26777C6.20107 9.73661 6.83696 10 7.5 10ZM5.5 21C6.16304 21 6.79893 20.7366 7.26777 20.2678C7.73661 19.7989 8 19.163 8 18.5C8 17.837 7.73661 17.2011 7.26777 16.7322C6.79893 16.2634 6.16304 16 5.5 16C4.83696 16 4.20107 16.2634 3.73223 16.7322C3.26339 17.2011 3 17.837 3 18.5C3 19.163 3.26339 19.7989 3.73223 20.2678C4.20107 20.7366 4.83696 21 5.5 21ZM18.5 8C19.163 8 19.7989 7.73661 20.2678 7.26777C20.7366 6.79893 21 6.16304 21 5.5C21 4.83696 20.7366 4.20107 20.2678 3.73223C19.7989 3.26339 19.163 3 18.5 3C17.837 3 17.2011 3.26339 16.7322 3.73223C16.2634 4.20107 16 4.83696 16 5.5C16 6.16304 16.2634 6.79893 16.7322 7.26777C17.2011 7.73661 17.837 8 18.5 8Z" stroke="#365EFF" stroke-width="1.25" stroke-linecap="round" stroke-linejoin="round"/>
</svg>
