<svg width="1364" height="1364" viewBox="0 0 1364 1364" fill="none" xmlns="http://www.w3.org/2000/svg">
<rect width="1364" height="1364" fill="white"/>
<path d="M624.848 696.131L536.052 790.765C534.737 792.162 534.029 794.024 534.086 795.942C534.142 797.86 534.957 799.678 536.352 800.995L578.786 840.988C580.181 842.305 582.042 843.014 583.96 842.961C585.878 842.907 587.696 842.094 589.016 840.701L681.222 743.039C682.489 741.696 683.197 739.92 683.2 738.074V624.044C683.2 622.193 682.492 620.412 681.222 619.065L580.123 523.299C578.806 521.906 576.989 521.094 575.074 521.04C573.158 520.987 571.299 521.696 569.906 523.012L532.642 562.568C531.95 563.221 531.395 564.003 531.006 564.87C530.617 565.738 530.403 566.674 530.377 567.624C530.35 568.574 530.511 569.52 530.851 570.408C531.19 571.296 531.702 572.108 532.355 572.798L624.848 660.176C626.12 661.516 626.828 663.294 626.826 665.141V691.18C626.819 693.021 626.112 694.791 624.848 696.131Z" fill="#FF8B00"/>
<path d="M763.376 696.131L852.173 790.765C853.49 792.161 854.199 794.022 854.146 795.94C854.092 797.858 853.279 799.676 851.886 800.995L809.452 840.988C808.057 842.305 806.196 843.014 804.278 842.961C802.36 842.907 800.542 842.094 799.222 840.701L707.002 743.039C705.739 741.695 705.037 739.919 705.038 738.074V624.044C705.038 622.193 705.746 620.412 707.016 619.065L808.116 523.299C809.433 521.906 811.249 521.094 813.164 521.04C815.08 520.987 816.939 521.696 818.332 523.012L855.596 562.568C856.989 563.888 857.802 565.706 857.856 567.624C857.909 569.542 857.2 571.403 855.883 572.798L763.376 660.176C762.105 661.516 761.397 663.294 761.399 665.141V691.18C761.406 693.021 762.113 694.791 763.376 696.131Z" fill="#071952"/>
<path d="M939.237 626.158V759.053C939.237 760.905 939.973 762.681 941.283 763.991C942.592 765.301 944.369 766.036 946.221 766.036H1121.6C1123.46 766.036 1125.23 766.772 1126.54 768.082C1127.85 769.392 1128.59 771.168 1128.59 773.02V815.932C1128.59 816.848 1128.41 817.756 1128.06 818.602C1127.7 819.449 1127.19 820.218 1126.54 820.865C1125.89 821.512 1125.12 822.026 1124.28 822.375C1123.43 822.724 1122.52 822.903 1121.6 822.902H904.728C898.02 822.902 891.586 820.238 886.841 815.496C882.097 810.754 879.429 804.321 879.426 797.613V587.557C879.429 580.849 882.097 574.417 886.841 569.675C891.586 564.932 898.02 562.269 904.728 562.269H1121.6C1123.46 562.269 1125.23 563.004 1126.54 564.314C1127.85 565.624 1128.59 567.4 1128.59 569.252V612.15C1128.59 614.002 1127.85 615.779 1126.54 617.088C1125.23 618.398 1123.46 619.134 1121.6 619.134H946.221C945.3 619.134 944.389 619.316 943.539 619.669C942.689 620.023 941.917 620.541 941.268 621.194C940.619 621.846 940.106 622.621 939.757 623.473C939.408 624.325 939.232 625.238 939.237 626.158Z" fill="#071952"/>
<path d="M1094.49 715.582V669.628C1094.49 666.615 1092.04 664.172 1089.03 664.172H968.072C965.059 664.172 962.616 666.615 962.616 669.628V715.582C962.616 718.595 965.059 721.038 968.072 721.038H1089.03C1092.04 721.038 1094.49 718.595 1094.49 715.582Z" fill="#071952"/>
<path d="M508.513 568.201V796.576C508.513 803.283 505.849 809.715 501.106 814.458C496.364 819.2 489.931 821.864 483.224 821.864H362.21C328.567 821.864 296.302 808.5 272.512 784.71C248.723 760.921 235.358 728.656 235.358 695.012V568.16C235.358 566.308 236.094 564.532 237.404 563.222C238.714 561.913 240.49 561.177 242.342 561.177H288.145C289.997 561.177 291.774 561.913 293.083 563.222C294.393 564.532 295.129 566.308 295.129 568.16V695.749C295.129 713.113 302.027 729.766 314.305 742.045C326.584 754.323 343.237 761.221 360.601 761.221H441.5C442.448 761.221 443.388 761.034 444.264 760.67C445.14 760.307 445.937 759.774 446.607 759.103C447.277 758.431 447.808 757.634 448.17 756.757C448.532 755.88 448.717 754.941 448.715 753.992V568.201C448.715 566.349 449.451 564.573 450.761 563.263C452.07 561.953 453.847 561.218 455.699 561.218H501.516C502.434 561.216 503.344 561.395 504.192 561.745C505.041 562.095 505.813 562.61 506.463 563.258C507.113 563.907 507.628 564.677 507.98 565.526C508.332 566.374 508.513 567.283 508.513 568.201Z" fill="#071952"/>
</svg>
